<?xml version="1.0" encoding="UTF-8" standalone="no"?>
<!-- Generator: Adobe Illustrator 19.0.0, SVG Export Plug-In . SVG Version: 6.00 Build 0)  -->

<svg
   xmlns:dc="http://purl.org/dc/elements/1.1/"
   xmlns:cc="http://creativecommons.org/ns#"
   xmlns:rdf="http://www.w3.org/1999/02/22-rdf-syntax-ns#"
   xmlns:svg="http://www.w3.org/2000/svg"
   xmlns="http://www.w3.org/2000/svg"
   xmlns:sodipodi="http://sodipodi.sourceforge.net/DTD/sodipodi-0.dtd"
   xmlns:inkscape="http://www.inkscape.org/namespaces/inkscape"
   version="1.1"
   id="Capa_1"
   x="0px"
   y="0px"
   viewBox="0 0 512 512"
   style="enable-background:new 0 0 512 512;"
   xml:space="preserve"
   sodipodi:docname="calendar.svg"
   inkscape:version="0.92.4 (5da689c313, 2019-01-14)"><metadata
   id="metadata49"><rdf:RDF><cc:Work
       rdf:about=""><dc:format>image/svg+xml</dc:format><dc:type
         rdf:resource="http://purl.org/dc/dcmitype/StillImage" /></cc:Work></rdf:RDF></metadata><defs
   id="defs47" /><sodipodi:namedview
   pagecolor="#ffffff"
   bordercolor="#666666"
   borderopacity="1"
   objecttolerance="10"
   gridtolerance="10"
   guidetolerance="10"
   inkscape:pageopacity="0"
   inkscape:pageshadow="2"
   inkscape:window-width="1920"
   inkscape:window-height="1001"
   id="namedview45"
   showgrid="false"
   inkscape:zoom="0.921875"
   inkscape:cx="184.61387"
   inkscape:cy="199.44131"
   inkscape:window-x="-9"
   inkscape:window-y="-9"
   inkscape:window-maximized="1"
   inkscape:current-layer="Capa_1" />
<g
   id="g6">
	<g
   id="g4">
		<path
   d="M467,60h-15V45c0-24.813-20.187-45-45-45s-45,20.187-45,45v15h-60V45c0-24.813-20.187-45-45-45s-45,20.187-45,45v15h-62    V45c0-24.813-20.187-45-45-45S60,20.187,60,45v15H45C20.187,60,0,80.187,0,105c0,2.176,0,356.248,0,362c0,24.813,20.187,45,45,45    h422c24.813,0,45-20.187,45-45c0-2.763,0-357.126,0-362C512,80.187,491.813,60,467,60z M392,45c0-8.271,6.729-15,15-15    s15,6.729,15,15v60c0,8.271-6.729,15-15,15s-15-6.729-15-15V45z M242,45c0-8.271,6.729-15,15-15s15,6.729,15,15v60    c0,8.271-6.729,15-15,15s-15-6.729-15-15V45z M90,45c0-8.271,6.729-15,15-15s15,6.729,15,15v60c0,8.271-6.729,15-15,15    s-15-6.729-15-15V45z M482,467c0,8.271-6.729,15-15,15H45c-8.271,0-15-6.729-15-15V212h452V467z M482,182H30v-77    c0-8.271,6.729-15,15-15h15v15c0,24.813,20.187,45,45,45s45-20.187,45-45V90h62v15c0,24.813,20.187,45,45,45s45-20.187,45-45V90    h60v15c0,24.813,20.187,45,45,45s45-20.187,45-45V90h15c8.271,0,15,6.729,15,15V182z"
   id="path2" />
	</g>
</g>

<g
   id="g14">
</g>
<g
   id="g16">
</g>
<g
   id="g18">
</g>
<g
   id="g20">
</g>
<g
   id="g22">
</g>
<g
   id="g24">
</g>
<g
   id="g26">
</g>
<g
   id="g28">
</g>
<g
   id="g30">
</g>
<g
   id="g32">
</g>
<g
   id="g34">
</g>
<g
   id="g36">
</g>
<g
   id="g38">
</g>
<g
   id="g40">
</g>
<g
   id="g42">
</g>
<g
   id="g895"
   transform="matrix(0.43963167,0,0,0.43963167,142.5613,230.42598)"
   style="fill:none;stroke:#00c900;stroke-width:19.83825684;stroke-miterlimit:4;stroke-dasharray:none;stroke-opacity:1"><g
     id="g839"
     style="fill:none;stroke:#00c900;stroke-width:19.83825684;stroke-miterlimit:4;stroke-dasharray:none;stroke-opacity:1"><path
       id="path837"
       d="M 516.667,200 H 333.333 V 16.667 C 333.333,7.462 325.871,0 316.667,0 h -100 C 207.462,0 200,7.462 200,16.667 V 200 H 16.667 C 7.462,200 0,207.462 0,216.667 v 100 c 0,9.204 7.462,16.666 16.667,16.666 H 200 v 183.334 c 0,9.204 7.462,16.666 16.667,16.666 h 100 c 9.204,0 16.667,-7.462 16.667,-16.666 V 333.333 h 183.333 c 9.204,0 16.667,-7.462 16.667,-16.666 v -100 C 533.333,207.462 525.871,200 516.667,200 Z"
       inkscape:connector-curvature="0"
       style="fill:none;stroke:#00c900;stroke-width:19.83825684;stroke-miterlimit:4;stroke-dasharray:none;stroke-opacity:1" /></g><g
     id="g841"
     style="fill:none;stroke:#00c900;stroke-width:19.83825684;stroke-miterlimit:4;stroke-dasharray:none;stroke-opacity:1" /><g
     id="g843"
     style="fill:none;stroke:#00c900;stroke-width:19.83825684;stroke-miterlimit:4;stroke-dasharray:none;stroke-opacity:1" /><g
     id="g845"
     style="fill:none;stroke:#00c900;stroke-width:19.83825684;stroke-miterlimit:4;stroke-dasharray:none;stroke-opacity:1" /><g
     id="g847"
     style="fill:none;stroke:#00c900;stroke-width:19.83825684;stroke-miterlimit:4;stroke-dasharray:none;stroke-opacity:1" /><g
     id="g849"
     style="fill:none;stroke:#00c900;stroke-width:19.83825684;stroke-miterlimit:4;stroke-dasharray:none;stroke-opacity:1" /><g
     id="g851"
     style="fill:none;stroke:#00c900;stroke-width:19.83825684;stroke-miterlimit:4;stroke-dasharray:none;stroke-opacity:1" /><g
     id="g853"
     style="fill:none;stroke:#00c900;stroke-width:19.83825684;stroke-miterlimit:4;stroke-dasharray:none;stroke-opacity:1" /><g
     id="g855"
     style="fill:none;stroke:#00c900;stroke-width:19.83825684;stroke-miterlimit:4;stroke-dasharray:none;stroke-opacity:1" /><g
     id="g857"
     style="fill:none;stroke:#00c900;stroke-width:19.83825684;stroke-miterlimit:4;stroke-dasharray:none;stroke-opacity:1" /><g
     id="g859"
     style="fill:none;stroke:#00c900;stroke-width:19.83825684;stroke-miterlimit:4;stroke-dasharray:none;stroke-opacity:1" /><g
     id="g861"
     style="fill:none;stroke:#00c900;stroke-width:19.83825684;stroke-miterlimit:4;stroke-dasharray:none;stroke-opacity:1" /><g
     id="g863"
     style="fill:none;stroke:#00c900;stroke-width:19.83825684;stroke-miterlimit:4;stroke-dasharray:none;stroke-opacity:1" /><g
     id="g865"
     style="fill:none;stroke:#00c900;stroke-width:19.83825684;stroke-miterlimit:4;stroke-dasharray:none;stroke-opacity:1" /><g
     id="g867"
     style="fill:none;stroke:#00c900;stroke-width:19.83825684;stroke-miterlimit:4;stroke-dasharray:none;stroke-opacity:1" /><g
     id="g869"
     style="fill:none;stroke:#00c900;stroke-width:19.83825684;stroke-miterlimit:4;stroke-dasharray:none;stroke-opacity:1" /></g></svg>