<?xml version="1.0" encoding="UTF-8" standalone="no"?>
<!-- Generator: Adobe Illustrator 19.0.0, SVG Export Plug-In . SVG Version: 6.00 Build 0)  -->

<svg
   xmlns:dc="http://purl.org/dc/elements/1.1/"
   xmlns:cc="http://creativecommons.org/ns#"
   xmlns:rdf="http://www.w3.org/1999/02/22-rdf-syntax-ns#"
   xmlns:svg="http://www.w3.org/2000/svg"
   xmlns="http://www.w3.org/2000/svg"
   xmlns:sodipodi="http://sodipodi.sourceforge.net/DTD/sodipodi-0.dtd"
   xmlns:inkscape="http://www.inkscape.org/namespaces/inkscape"
   version="1.1"
   id="Capa_1"
   x="0px"
   y="0px"
   viewBox="0 0 512 512"
   style="enable-background:new 0 0 512 512;"
   xml:space="preserve"
   sodipodi:docname="subscription.svg"
   inkscape:version="0.92.4 (5da689c313, 2019-01-14)"><metadata
   id="metadata49"><rdf:RDF><cc:Work
       rdf:about=""><dc:format>image/svg+xml</dc:format><dc:type
         rdf:resource="http://purl.org/dc/dcmitype/StillImage" /><dc:title></dc:title></cc:Work></rdf:RDF></metadata><defs
   id="defs47" /><sodipodi:namedview
   pagecolor="#ffffff"
   bordercolor="#666666"
   borderopacity="1"
   objecttolerance="10"
   gridtolerance="10"
   guidetolerance="10"
   inkscape:pageopacity="0"
   inkscape:pageshadow="2"
   inkscape:window-width="1920"
   inkscape:window-height="1001"
   id="namedview45"
   showgrid="false"
   inkscape:zoom="0.921875"
   inkscape:cx="184.61387"
   inkscape:cy="199.44131"
   inkscape:window-x="-9"
   inkscape:window-y="-9"
   inkscape:window-maximized="1"
   inkscape:current-layer="Capa_1" />
<g
   id="g6">
	<g
   id="g4">
		<path
   d="M467,60h-15V45c0-24.813-20.187-45-45-45s-45,20.187-45,45v15h-60V45c0-24.813-20.187-45-45-45s-45,20.187-45,45v15h-62    V45c0-24.813-20.187-45-45-45S60,20.187,60,45v15H45C20.187,60,0,80.187,0,105c0,2.176,0,356.248,0,362c0,24.813,20.187,45,45,45    h422c24.813,0,45-20.187,45-45c0-2.763,0-357.126,0-362C512,80.187,491.813,60,467,60z M392,45c0-8.271,6.729-15,15-15    s15,6.729,15,15v60c0,8.271-6.729,15-15,15s-15-6.729-15-15V45z M242,45c0-8.271,6.729-15,15-15s15,6.729,15,15v60    c0,8.271-6.729,15-15,15s-15-6.729-15-15V45z M90,45c0-8.271,6.729-15,15-15s15,6.729,15,15v60c0,8.271-6.729,15-15,15    s-15-6.729-15-15V45z M482,467c0,8.271-6.729,15-15,15H45c-8.271,0-15-6.729-15-15V212h452V467z M482,182H30v-77    c0-8.271,6.729-15,15-15h15v15c0,24.813,20.187,45,45,45s45-20.187,45-45V90h62v15c0,24.813,20.187,45,45,45s45-20.187,45-45V90    h60v15c0,24.813,20.187,45,45,45s45-20.187,45-45V90h15c8.271,0,15,6.729,15,15V182z"
   id="path2" />
	</g>
</g>

<g
   id="g14">
</g>
<g
   id="g16">
</g>
<g
   id="g18">
</g>
<g
   id="g20">
</g>
<g
   id="g22">
</g>
<g
   id="g24">
</g>
<g
   id="g26">
</g>
<g
   id="g28">
</g>
<g
   id="g30">
</g>
<g
   id="g32">
</g>
<g
   id="g34">
</g>
<g
   id="g36">
</g>
<g
   id="g38">
</g>
<g
   id="g40">
</g>
<g
   id="g42">
</g>
<g
   id="g955"
   transform="matrix(0.7133665,0,0,0.82746697,114.78639,180.79071)"
   style="fill:none;stroke:#d12913;stroke-width:17.94310379;stroke-miterlimit:4;stroke-dasharray:none;stroke-opacity:1"><g
     id="g899"
     style="fill:none;stroke:#d12913;stroke-width:17.94310379;stroke-miterlimit:4;stroke-dasharray:none;stroke-opacity:1"><path
       id="path897"
       d="m 394,154.174 c -5.331,-5.33 -11.806,-7.995 -19.417,-7.995 H 27.406 c -7.611,0 -14.084,2.665 -19.414,7.995 C 2.662,159.503 0,165.972 0,173.587 v 54.82 c 0,7.617 2.662,14.086 7.992,19.41 5.33,5.332 11.803,7.994 19.414,7.994 h 347.176 c 7.611,0 14.086,-2.662 19.417,-7.994 5.325,-5.324 7.991,-11.793 7.991,-19.41 v -54.82 c 10e-4,-7.615 -2.658,-14.087 -7.99,-19.413 z"
       inkscape:connector-curvature="0"
       style="fill:none;stroke:#d12913;stroke-width:17.94310379;stroke-miterlimit:4;stroke-dasharray:none;stroke-opacity:1" /></g><g
     id="g901"
     style="fill:none;stroke:#d12913;stroke-width:17.94310379;stroke-miterlimit:4;stroke-dasharray:none;stroke-opacity:1" /><g
     id="g903"
     style="fill:none;stroke:#d12913;stroke-width:17.94310379;stroke-miterlimit:4;stroke-dasharray:none;stroke-opacity:1" /><g
     id="g905"
     style="fill:none;stroke:#d12913;stroke-width:17.94310379;stroke-miterlimit:4;stroke-dasharray:none;stroke-opacity:1" /><g
     id="g907"
     style="fill:none;stroke:#d12913;stroke-width:17.94310379;stroke-miterlimit:4;stroke-dasharray:none;stroke-opacity:1" /><g
     id="g909"
     style="fill:none;stroke:#d12913;stroke-width:17.94310379;stroke-miterlimit:4;stroke-dasharray:none;stroke-opacity:1" /><g
     id="g911"
     style="fill:none;stroke:#d12913;stroke-width:17.94310379;stroke-miterlimit:4;stroke-dasharray:none;stroke-opacity:1" /><g
     id="g913"
     style="fill:none;stroke:#d12913;stroke-width:17.94310379;stroke-miterlimit:4;stroke-dasharray:none;stroke-opacity:1" /><g
     id="g915"
     style="fill:none;stroke:#d12913;stroke-width:17.94310379;stroke-miterlimit:4;stroke-dasharray:none;stroke-opacity:1" /><g
     id="g917"
     style="fill:none;stroke:#d12913;stroke-width:17.94310379;stroke-miterlimit:4;stroke-dasharray:none;stroke-opacity:1" /><g
     id="g919"
     style="fill:none;stroke:#d12913;stroke-width:17.94310379;stroke-miterlimit:4;stroke-dasharray:none;stroke-opacity:1" /><g
     id="g921"
     style="fill:none;stroke:#d12913;stroke-width:17.94310379;stroke-miterlimit:4;stroke-dasharray:none;stroke-opacity:1" /><g
     id="g923"
     style="fill:none;stroke:#d12913;stroke-width:17.94310379;stroke-miterlimit:4;stroke-dasharray:none;stroke-opacity:1" /><g
     id="g925"
     style="fill:none;stroke:#d12913;stroke-width:17.94310379;stroke-miterlimit:4;stroke-dasharray:none;stroke-opacity:1" /><g
     id="g927"
     style="fill:none;stroke:#d12913;stroke-width:17.94310379;stroke-miterlimit:4;stroke-dasharray:none;stroke-opacity:1" /><g
     id="g929"
     style="fill:none;stroke:#d12913;stroke-width:17.94310379;stroke-miterlimit:4;stroke-dasharray:none;stroke-opacity:1" /></g></svg>