<?xml version="1.0" encoding="UTF-8" standalone="no"?>
<!-- Generator: Adobe Illustrator 19.1.0, SVG Export Plug-In . SVG Version: 6.00 Build 0)  -->

<svg
   xmlns:dc="http://purl.org/dc/elements/1.1/"
   xmlns:cc="http://creativecommons.org/ns#"
   xmlns:rdf="http://www.w3.org/1999/02/22-rdf-syntax-ns#"
   xmlns:svg="http://www.w3.org/2000/svg"
   xmlns="http://www.w3.org/2000/svg"
   xmlns:sodipodi="http://sodipodi.sourceforge.net/DTD/sodipodi-0.dtd"
   xmlns:inkscape="http://www.inkscape.org/namespaces/inkscape"
   version="1.1"
   id="Capa_1"
   x="0px"
   y="0px"
   viewBox="0 0 334.877 334.877"
   style="enable-background:new 0 0 334.877 334.877;"
   xml:space="preserve"
   sodipodi:docname="wallet.svg"
   inkscape:version="0.92.4 (5da689c313, 2019-01-14)"><metadata
   id="metadata41"><rdf:RDF><cc:Work
       rdf:about=""><dc:format>image/svg+xml</dc:format><dc:type
         rdf:resource="http://purl.org/dc/dcmitype/StillImage" /></cc:Work></rdf:RDF></metadata><defs
   id="defs39" /><sodipodi:namedview
   pagecolor="#ffffff"
   bordercolor="#666666"
   borderopacity="1"
   objecttolerance="10"
   gridtolerance="10"
   guidetolerance="10"
   inkscape:pageopacity="0"
   inkscape:pageshadow="2"
   inkscape:window-width="1920"
   inkscape:window-height="1001"
   id="namedview37"
   showgrid="false"
   inkscape:zoom="1.9932954"
   inkscape:cx="123.03076"
   inkscape:cy="255.49588"
   inkscape:window-x="-9"
   inkscape:window-y="-9"
   inkscape:window-maximized="1"
   inkscape:current-layer="layer1" />
<g
   id="g4">
	
</g>
<g
   id="g6">
</g>
<g
   id="g8">
</g>
<g
   id="g10">
</g>
<g
   id="g12">
</g>
<g
   id="g14">
</g>
<g
   id="g16">
</g>
<g
   id="g18">
</g>
<g
   id="g20">
</g>
<g
   id="g22">
</g>
<g
   id="g24">
</g>
<g
   id="g26">
</g>
<g
   id="g28">
</g>
<g
   id="g30">
</g>
<g
   id="g32">
</g>
<g
   id="g34">
</g>
<g
   inkscape:groupmode="layer"
   id="layer1"
   inkscape:label="Layer 1"><path
     inkscape:connector-curvature="0"
     d="m 217.22563,66.161904 -8.96138,6.09744 c -3.25868,2.217246 -7.69418,1.373688 -9.91144,-1.884995 -2.21726,-3.258684 -1.37369,-7.694188 1.885,-9.911441 l 15.77202,-10.731494 c 2.15073,-1.463379 2.71311,-4.420393 1.24972,-6.571123 -1.46339,-2.15073 -4.4204,-2.713096 -6.57112,-1.24971 l -7.39721,5.033156 -3.70282,-5.441997 c -1.46338,-2.150731 -4.42038,-2.713105 -6.57111,-1.249719 -2.15073,1.463387 -2.71311,4.420384 -1.24973,6.571115 l 3.70282,5.442005 -0.55397,0.376926 c -7.56015,5.144026 -9.52846,15.493535 -4.38444,23.053679 5.14402,7.560156 15.49353,9.528461 23.05369,4.384431 l 8.96137,-6.097439 c 3.25868,-2.217246 7.69418,-1.373688 9.91143,1.884995 2.21726,3.258684 1.3737,7.69419 -1.88498,9.911444 l -16.06531,10.931031 c -2.15074,1.463401 -2.7131,4.420402 -1.24971,6.571122 1.46338,2.15073 4.42037,2.71311 6.57111,1.24972 l 7.69049,-5.232706 3.7915,5.572336 c 1.46339,2.15074 4.42039,2.71311 6.57112,1.24973 2.15072,-1.46339 2.71311,-4.42039 1.24972,-6.571124 l -3.7915,-5.572347 0.65174,-0.443455 c 0.0326,-0.02223 0.0652,-0.04436 0.0978,-0.0665 7.42844,-5.197443 9.28858,-15.425679 4.1889,-22.920647 -5.14402,-7.560144 -15.49354,-9.528451 -23.05367,-4.384425 z"
     id="path2-1"
     style="fill:#008543;fill-opacity:1;stroke-width:0.39414737" /><rect
     style="opacity:1;fill:#ffffff;fill-opacity:1;stroke:none;stroke-width:28.69720268;stroke-miterlimit:4;stroke-dasharray:none;stroke-opacity:1"
     id="rect4688-3"
     width="112.8784"
     height="35.117725"
     x="164.7428"
     y="89.218658" /></g><g
   inkscape:groupmode="layer"
   id="layer2"
   inkscape:label="Layer 2"><path
     d="M333.196,155.999h-16.067V82.09c0-17.719-14.415-32.134-32.134-32.134h-21.761L240.965,9.917   C237.571,3.798,231.112,0,224.107,0c-3.265,0-6.504,0.842-9.364,2.429l-85.464,47.526H33.815   c-17.719,0-32.134,14.415-32.134,32.134v220.653c0,17.719,14.415,32.134,32.134,32.134h251.18   c17.719,0,32.134-14.415,32.134-32.134v-64.802h16.067V155.999z M284.995,62.809c9.897,0,17.982,7.519,19.068,17.14h-24.152   l-9.525-17.14H284.995z M220.996,13.663c3.014-1.69,7.07-0.508,8.734,2.494l35.476,63.786H101.798L220.996,13.663z    M304.275,302.742c0,10.63-8.651,19.281-19.281,19.281H33.815c-10.63,0-19.281-8.651-19.281-19.281V82.09   c0-10.63,8.651-19.281,19.281-19.281h72.353L75.345,79.95H37.832c-3.554,0-6.427,2.879-6.427,6.427s2.873,6.427,6.427,6.427h14.396   h234.83h17.217v63.201h-46.999c-21.826,0-39.589,17.764-39.589,39.589v2.764c0,21.826,17.764,39.589,39.589,39.589h46.999V302.742z    M320.342,225.087h-3.213h-59.853c-14.743,0-26.736-11.992-26.736-26.736v-2.764c0-14.743,11.992-26.736,26.736-26.736h59.853   h3.213V225.087z M276.961,197.497c0,7.841-6.35,14.19-14.19,14.19c-7.841,0-14.19-6.35-14.19-14.19s6.35-14.19,14.19-14.19   C270.612,183.306,276.961,189.662,276.961,197.497z"
     id="path2"
     style="enable-background:new 0 0 334.87700000000000955 334.87700000000000955" /></g></svg>